<?xml version="1.0" encoding="UTF-8"?>
        <svg xmlns="http://www.w3.org/2000/svg" xmlns:xlink="http://www.w3.org/1999/xlink"
             width="190" height="190" viewBox="400 -1500 1100 1100">

<defs>

</defs>

<line stroke="#84A1AE" stroke-width="6.0" x1="-50.0" x2="-50.0" y1="0" y2="-1900" />
<line stroke="#84A1AE" stroke-width="6.0" x1="50.0" x2="50.0" y1="0" y2="-1900" />
<line stroke="#84A1AE" stroke-width="6.0" x1="150.0" x2="150.0" y1="0" y2="-1900" />
<line stroke="#84A1AE" stroke-width="6.0" x1="250.0" x2="250.0" y1="0" y2="-1900" />
<line stroke="#84A1AE" stroke-width="6.0" x1="350.0" x2="350.0" y1="0" y2="-1900" />
<line stroke="#84A1AE" stroke-width="6.0" x1="450.0" x2="450.0" y1="0" y2="-1900" />
<line stroke="#84A1AE" stroke-width="6.0" x1="550.0" x2="550.0" y1="0" y2="-1900" />
<line stroke="#84A1AE" stroke-width="6.0" x1="650.0" x2="650.0" y1="0" y2="-1900" />
<line stroke="#84A1AE" stroke-width="6.0" x1="750.0" x2="750.0" y1="0" y2="-1900" />
<line stroke="#84A1AE" stroke-width="6.0" x1="850.0" x2="850.0" y1="0" y2="-1900" />
<line stroke="#84A1AE" stroke-width="6.0" x1="950.0" x2="950.0" y1="0" y2="-1900" />
<line stroke="#84A1AE" stroke-width="6.0" x1="1050.0" x2="1050.0" y1="0" y2="-1900" />
<line stroke="#84A1AE" stroke-width="6.0" x1="1150.0" x2="1150.0" y1="0" y2="-1900" />
<line stroke="#84A1AE" stroke-width="6.0" x1="1250.0" x2="1250.0" y1="0" y2="-1900" />
<line stroke="#84A1AE" stroke-width="6.0" x1="1350.0" x2="1350.0" y1="0" y2="-1900" />
<line stroke="#84A1AE" stroke-width="6.0" x1="1450.0" x2="1450.0" y1="0" y2="-1900" />
<line stroke="#84A1AE" stroke-width="6.0" x1="1550.0" x2="1550.0" y1="0" y2="-1900" />
<line stroke="#84A1AE" stroke-width="6.0" x1="1650.0" x2="1650.0" y1="0" y2="-1900" />
<line stroke="#84A1AE" stroke-width="6.0" x1="1750.0" x2="1750.0" y1="0" y2="-1900" />
<line stroke="#84A1AE" stroke-width="6.0" x1="1850.0" x2="1850.0" y1="0" y2="-1900" />
<line stroke="#84A1AE" stroke-width="6.0" x1="0" x2="1900" y1="50.0" y2="50.0" />
<line stroke="#84A1AE" stroke-width="6.0" x1="0" x2="1900" y1="-50.0" y2="-50.0" />
<line stroke="#84A1AE" stroke-width="6.0" x1="0" x2="1900" y1="-150.0" y2="-150.0" />
<line stroke="#84A1AE" stroke-width="6.0" x1="0" x2="1900" y1="-250.0" y2="-250.0" />
<line stroke="#84A1AE" stroke-width="6.0" x1="0" x2="1900" y1="-350.0" y2="-350.0" />
<line stroke="#84A1AE" stroke-width="6.0" x1="0" x2="1900" y1="-450.0" y2="-450.0" />
<line stroke="#84A1AE" stroke-width="6.0" x1="0" x2="1900" y1="-550.0" y2="-550.0" />
<line stroke="#84A1AE" stroke-width="6.0" x1="0" x2="1900" y1="-650.0" y2="-650.0" />
<line stroke="#84A1AE" stroke-width="6.0" x1="0" x2="1900" y1="-750.0" y2="-750.0" />
<line stroke="#84A1AE" stroke-width="6.0" x1="0" x2="1900" y1="-850.0" y2="-850.0" />
<line stroke="#84A1AE" stroke-width="6.0" x1="0" x2="1900" y1="-950.0" y2="-950.0" />
<line stroke="#84A1AE" stroke-width="6.0" x1="0" x2="1900" y1="-1050.0" y2="-1050.0" />
<line stroke="#84A1AE" stroke-width="6.0" x1="0" x2="1900" y1="-1150.0" y2="-1150.0" />
<line stroke="#84A1AE" stroke-width="6.0" x1="0" x2="1900" y1="-1250.0" y2="-1250.0" />
<line stroke="#84A1AE" stroke-width="6.0" x1="0" x2="1900" y1="-1350.0" y2="-1350.0" />
<line stroke="#84A1AE" stroke-width="6.0" x1="0" x2="1900" y1="-1450.0" y2="-1450.0" />
<line stroke="#84A1AE" stroke-width="6.0" x1="0" x2="1900" y1="-1550.0" y2="-1550.0" />
<line stroke="#84A1AE" stroke-width="6.0" x1="0" x2="1900" y1="-1650.0" y2="-1650.0" />
<line stroke="#84A1AE" stroke-width="6.0" x1="0" x2="1900" y1="-1750.0" y2="-1750.0" />
<line stroke="#84A1AE" stroke-width="6.0" x1="0" x2="1900" y1="-1850.0" y2="-1850.0" />
<rect fill="#84A1AE" height="70" rx="15" width="70" x="465" y="-535" />
<rect fill="#84A1AE" height="70" rx="15" width="70" x="465" y="-635" />
<rect fill="#84A1AE" height="70" rx="15" width="70" x="465" y="-735" />
<rect fill="#84A1AE" height="70" rx="15" width="70" x="465" y="-835" />
<rect fill="#84A1AE" height="70" rx="15" width="70" x="465" y="-935" />
<rect fill="#84A1AE" height="70" rx="15" width="70" x="465" y="-1035" />
<rect fill="#84A1AE" height="70" rx="15" width="70" x="465" y="-1135" />
<rect fill="#84A1AE" height="70" rx="15" width="70" x="465" y="-1235" />
<rect fill="#84A1AE" height="70" rx="15" width="70" x="465" y="-1335" />
<rect fill="#84A1AE" height="70" rx="15" width="70" x="465" y="-1435" />
<rect fill="#84A1AE" height="70" rx="15" width="70" x="565" y="-535" />
<rect fill="#84A1AE" height="70" rx="15" width="70" x="565" y="-1135" />
<rect fill="#84A1AE" height="70" rx="15" width="70" x="565" y="-1435" />
<rect fill="#84A1AE" height="70" rx="15" width="70" x="665" y="-535" />
<rect fill="#84A1AE" height="70" rx="15" width="70" x="665" y="-1435" />
<rect fill="#84A1AE" height="70" rx="15" width="70" x="765" y="-535" />
<rect fill="#84A1AE" height="70" rx="15" width="70" x="765" y="-935" />
<rect fill="#84A1AE" height="70" rx="15" width="70" x="765" y="-1435" />
<rect fill="#84A1AE" height="70" rx="15" width="70" x="865" y="-535" />
<rect fill="#84A1AE" height="70" rx="15" width="70" x="865" y="-935" />
<rect fill="#84A1AE" height="70" rx="15" width="70" x="865" y="-1035" />
<rect fill="#84A1AE" height="70" rx="15" width="70" x="865" y="-1435" />
<rect fill="#84A1AE" height="70" rx="15" width="70" x="965" y="-535" />
<rect fill="#84A1AE" height="70" rx="15" width="70" x="965" y="-635" />
<rect fill="#84A1AE" height="70" rx="15" width="70" x="965" y="-735" />
<rect fill="#84A1AE" height="70" rx="15" width="70" x="965" y="-1435" />
<rect fill="#84A1AE" height="70" rx="15" width="70" x="1065" y="-535" />
<rect fill="#84A1AE" height="70" rx="15" width="70" x="1065" y="-1035" />
<rect fill="#84A1AE" height="70" rx="15" width="70" x="1065" y="-1335" />
<rect fill="#84A1AE" height="70" rx="15" width="70" x="1065" y="-1435" />
<rect fill="#84A1AE" height="70" rx="15" width="70" x="1165" y="-535" />
<rect fill="#84A1AE" height="70" rx="15" width="70" x="1165" y="-735" />
<rect fill="#84A1AE" height="70" rx="15" width="70" x="1165" y="-935" />
<rect fill="#84A1AE" height="70" rx="15" width="70" x="1165" y="-1335" />
<rect fill="#84A1AE" height="70" rx="15" width="70" x="1165" y="-1435" />
<rect fill="#84A1AE" height="70" rx="15" width="70" x="1265" y="-535" />
<rect fill="#84A1AE" height="70" rx="15" width="70" x="1265" y="-835" />
<rect fill="#84A1AE" height="70" rx="15" width="70" x="1265" y="-935" />
<rect fill="#84A1AE" height="70" rx="15" width="70" x="1265" y="-1035" />
<rect fill="#84A1AE" height="70" rx="15" width="70" x="1265" y="-1135" />
<rect fill="#84A1AE" height="70" rx="15" width="70" x="1265" y="-1435" />
<rect fill="#84A1AE" height="70" rx="15" width="70" x="1365" y="-535" />
<rect fill="#84A1AE" height="70" rx="15" width="70" x="1365" y="-635" />
<rect fill="#84A1AE" height="70" rx="15" width="70" x="1365" y="-735" />
<rect fill="#84A1AE" height="70" rx="15" width="70" x="1365" y="-835" />
<rect fill="#84A1AE" height="70" rx="15" width="70" x="1365" y="-935" />
<rect fill="#84A1AE" height="70" rx="15" width="70" x="1365" y="-1035" />
<rect fill="#84A1AE" height="70" rx="15" width="70" x="1365" y="-1135" />
<rect fill="#84A1AE" height="70" rx="15" width="70" x="1365" y="-1235" />
<rect fill="#84A1AE" height="70" rx="15" width="70" x="1365" y="-1335" />
<rect fill="#84A1AE" height="70" rx="15" width="70" x="1365" y="-1435" />
<circle cx="800" cy="-1000" fill="#c1433c" r="35"> <animate attributeName="cy" dur="2.24s" keyTimes="0.0;0.1111111111;0.2222222222;0.3333333333;1.0" repeatCount="indefinite" values="-1000;-1000;-1100;-1200;-1200"/>
<animate attributeName="cx" dur="2.24s" keyTimes="0.0;0.1111111111;0.3333333333;0.4444444444;0.5555555556;0.6666666667;1.0" repeatCount="indefinite" values="800;800;800;900;1000;1100;1100"/>
<animate attributeName="visibility" dur="2.24s" keyTimes="0.0;0.1111111111;0.5555555556;0.6666666667;1.0" repeatCount="indefinite" values="visible;visible;visible;hidden;hidden"/> </circle>
<circle cx="1200" cy="-800" fill="#2e6f9e" r="35"> <animate attributeName="cy" dur="2.24s" keyTimes="0.0;0.1111111111;0.3333333333;0.4444444444;0.5555555556;0.6666666667;0.7777777778;0.8888888889;1.0" repeatCount="indefinite" values="-800;-800;-800;-900;-1000;-1100;-1200;-1300;-1300"/>
<animate attributeName="cx" dur="2.24s" keyTimes="0.0;0.1111111111;0.2222222222;0.3333333333;1.0" repeatCount="indefinite" values="1200;1200;1100;1000;1000"/>
<animate attributeName="visibility" dur="2.24s" keyTimes="0.0;0.1111111111;0.7777777778;0.8888888889;1.0" repeatCount="indefinite" values="visible;visible;visible;hidden;hidden"/> </circle>
<circle cx="800" cy="-1300" fill="#6e81af" r="35"> <animate attributeName="cy" dur="2.24s" keyTimes="0.0;0.1111111111;1.0" repeatCount="indefinite" values="-1300;-1300;-1300"/>
<animate attributeName="cx" dur="2.24s" keyTimes="0.0;0.1111111111;0.2222222222;1.0" repeatCount="indefinite" values="800;800;900;900"/>
<animate attributeName="visibility" dur="2.24s" keyTimes="0.0;0.1111111111;0.2222222222;1.0" repeatCount="indefinite" values="visible;visible;hidden;hidden"/> </circle>
<circle cx="1100" cy="-1100" fill="#00b9c8" r="35"> <animate attributeName="cy" dur="2.24s" keyTimes="0.0;0.1111111111;0.5555555556;0.6666666667;1.0" repeatCount="indefinite" values="-1100;-1100;-1100;-1000;-1000"/>
<animate attributeName="cx" dur="2.24s" keyTimes="0.0;0.1111111111;0.2222222222;0.3333333333;0.4444444444;0.5555555556;1.0" repeatCount="indefinite" values="1100;1100;1000;900;800;700;700"/>
<animate attributeName="visibility" dur="2.24s" keyTimes="0.0;0.1111111111;0.5555555556;0.6666666667;1.0" repeatCount="indefinite" values="visible;visible;visible;hidden;hidden"/> </circle>
<circle cx="1100" cy="-1200" fill="none" r="35" stroke="#c1433c" stroke-width="10"> <animate attributeName="visibility" dur="2.24s" keyTimes="0.0;0.1111111111;0.5555555556;0.6666666667;1.0" repeatCount="indefinite" values="visible;visible;visible;hidden;hidden"/> </circle>
<circle cx="1000" cy="-1300" fill="none" r="35" stroke="#2e6f9e" stroke-width="10"> <animate attributeName="visibility" dur="2.24s" keyTimes="0.0;0.1111111111;0.7777777778;0.8888888889;1.0" repeatCount="indefinite" values="visible;visible;visible;hidden;hidden"/> </circle>
<circle cx="900" cy="-1300" fill="none" r="35" stroke="#6e81af" stroke-width="10"> <animate attributeName="visibility" dur="2.24s" keyTimes="0.0;0.1111111111;0.2222222222;1.0" repeatCount="indefinite" values="visible;visible;hidden;hidden"/> </circle>
<circle cx="700" cy="-1000" fill="none" r="35" stroke="#00b9c8" stroke-width="10"> <animate attributeName="visibility" dur="2.24s" keyTimes="0.0;0.1111111111;0.5555555556;0.6666666667;1.0" repeatCount="indefinite" values="visible;visible;visible;hidden;hidden"/> </circle>
</svg>